# xmcd
#
# Track frame offsets: 
#        150
#        24530
#        46087
#        65725
#        82215
#        101137
#        124952
#        147135
#        167875
#        191220
#
# Disc length: 2760 seconds
#
# Revision: 2
# Processed by: cddbd v1.5.2PL0 Copyright (c) Steve Scherf et al.
# Submitted via: ExactAudioCopy v0.99pb5
#
DISCID=950ac60a
DTITLE=Roberto Carlos - Roberto Carlos
DYEAR=1987
DGENRE=MPB
TTITLE0=To Chutando Lata
TTITLE1=Menina
TTITLE2=Aguia Dourada
TTITLE3=Coisas Do Coração
TTITLE4=Canção Do Sonho Bom
TTITLE5=O Careta
TTITLE6=Antigamente Era Assim
TTITLE7=Ingênuo e Sonhador
TTITLE8=Aventuras
TTITLE9=Todo Mundo Está Falando
EXTD=
EXTT0=
EXTT1=
EXTT2=
EXTT3=
EXTT4=
EXTT5=
EXTT6=
EXTT7=
EXTT8=
EXTT9=
PLAYORDER=
